<svg width="22" height="22" viewBox="0 0 22 22" fill="none" xmlns="http://www.w3.org/2000/svg">
<path d="M21.2143 10.2143C18.7145 10.2114 16.318 9.21716 14.5504 7.44957C12.7828 5.68199 11.7886 3.28545 11.7857 0.785714C11.7857 0.57733 11.7029 0.37748 11.5556 0.23013C11.4082 0.0827803 11.2084 0 11 0C10.7916 0 10.5918 0.0827803 10.4444 0.23013C10.2971 0.37748 10.2143 0.57733 10.2143 0.785714C10.2114 3.28545 9.21716 5.68199 7.44957 7.44957C5.68199 9.21716 3.28545 10.2114 0.785714 10.2143C0.57733 10.2143 0.37748 10.2971 0.23013 10.4444C0.0827803 10.5918 0 10.7916 0 11C0 11.2084 0.0827803 11.4082 0.23013 11.5556C0.37748 11.7029 0.57733 11.7857 0.785714 11.7857C3.28545 11.7886 5.68199 12.7828 7.44957 14.5504C9.21716 16.318 10.2114 18.7145 10.2143 21.2143C10.2143 21.4227 10.2971 21.6225 10.4444 21.7699C10.5918 21.9172 10.7916 22 11 22C11.2084 22 11.4082 21.9172 11.5556 21.7699C11.7029 21.6225 11.7857 21.4227 11.7857 21.2143C11.7886 18.7145 12.7828 16.318 14.5504 14.5504C16.318 12.7828 18.7145 11.7886 21.2143 11.7857C21.4227 11.7857 21.6225 11.7029 21.7699 11.5556C21.9172 11.4082 22 11.2084 22 11C22 10.7916 21.9172 10.5918 21.7699 10.4444C21.6225 10.2971 21.4227 10.2143 21.2143 10.2143ZM11 17.1551C10.4444 15.7657 9.6123 14.5038 8.55425 13.4457C7.49621 12.3877 6.23426 11.5556 4.84495 11C6.23426 10.4444 7.49621 9.6123 8.55425 8.55425C9.6123 7.49621 10.4444 6.23426 11 4.84495C11.5556 6.23426 12.3877 7.49621 13.4457 8.55425C14.5038 9.6123 15.7657 10.4444 17.1551 11C15.7657 11.5556 14.5038 12.3877 13.4457 13.4457C12.3877 14.5038 11.5556 15.7657 11 17.1551Z" fill="#45C646"/>
</svg>
