<svg width="40" height="40" viewBox="0 0 40 40" fill="none" xmlns="http://www.w3.org/2000/svg">
<path d="M16.3057 7.1107C16.4075 7.31803 16.4748 7.54007 16.5049 7.76833L17.0618 16.0482L17.3382 20.2099C17.3411 20.6379 17.4082 21.0631 17.5375 21.4719C17.8714 22.2649 18.6745 22.7689 19.5483 22.7338L32.863 21.8629C33.4395 21.8534 33.9963 22.069 34.4108 22.4623C34.7562 22.7901 34.9792 23.2189 35.0494 23.6801L35.073 23.9602C34.522 31.5897 28.9186 37.9532 21.3049 39.5959C13.6912 41.2386 5.88378 37.7685 2.12144 31.0697C1.03678 29.1235 0.359304 26.9843 0.128765 24.7778C0.0324575 24.1246 -0.00994912 23.4648 0.00195847 22.8049C-0.00993199 14.6252 5.81499 7.55356 13.9688 5.84877C14.9502 5.69596 15.9122 6.21548 16.3057 7.1107Z" fill="#45C646"/>
<path opacity="0.4" d="M21.7392 0.00163839C30.859 0.233655 38.5239 6.79164 39.9993 15.6247L39.9852 15.6899L39.945 15.7847L39.9506 16.0449C39.9297 16.3896 39.7966 16.7212 39.5673 16.9891C39.3284 17.2682 39.002 17.4582 38.6425 17.532L38.4233 17.5621L23.0616 18.5574C22.5506 18.6078 22.0419 18.443 21.6619 18.1041C21.3452 17.8216 21.1428 17.4403 21.0856 17.0295L20.0545 1.69014C20.0365 1.63827 20.0365 1.58204 20.0545 1.53018C20.0686 1.10735 20.2547 0.707686 20.5712 0.420464C20.8878 0.133241 21.3085 -0.0176009 21.7392 0.00163839Z" fill="#45C646"/>
</svg>
