<svg width="20" height="20" viewBox="0 0 20 20" fill="none" xmlns="http://www.w3.org/2000/svg">
<path d="M18.753 2.90145L14.1549 0.142633C14.1343 0.130372 14.1113 0.124241 14.089 0.114279C13.7848 -0.0681098 13.3917 -0.0351572 13.1395 0.234594L6.68774 7.14774L3.13193 3.88773C2.89743 3.67316 2.55411 3.62641 2.27133 3.76742L0.423689 4.69085C0.206815 4.79891 0.0543134 5.00199 0.0121648 5.24032C-0.0299838 5.47865 0.0412857 5.72235 0.206049 5.8986L4.02931 9.99545L0.206049 14.0923C0.0412857 14.2686 -0.0307502 14.513 0.0121648 14.7506C0.0550798 14.9881 0.207581 15.192 0.423689 15.3L2.27133 16.2243C2.38015 16.2787 2.4974 16.3047 2.61388 16.3047C2.78938 16.3047 2.9641 16.2442 3.10511 16.1269L6.84408 13.011L13.1395 19.7563C13.2905 19.918 13.4951 20 13.6997 20C13.84 20 13.9749 19.9487 14.0982 19.872C14.1166 19.8628 14.1366 19.859 14.1542 19.8483L18.7522 17.0894C18.9829 16.9515 19.1247 16.7017 19.1247 16.4327V3.5582C19.1247 3.28922 18.9829 3.03939 18.753 2.90145ZM2.50813 14.6287L2.0261 14.3881L5.0769 11.1189L5.79572 11.8891L2.50813 14.6287ZM12.9939 17.3538L2.0261 5.6028L2.48514 5.37366L12.9939 15.0073V17.3538ZM12.9939 12.9275L10.1133 10.2867L12.9939 7.88649V12.9275ZM12.9939 5.89094L8.97296 9.24137L7.81809 8.18229L12.9939 2.63707V5.89094ZM17.592 15.9982L14.5266 17.8374V2.15274L17.592 3.99195V15.9982Z" fill="#008EFF"/>
</svg>
